<svg id="svg" version="1.1" width="400" height="350" viewBox="0 0 400 350" xmlns="http://www.w3.org/2000/svg" xmlns:xlink="http://www.w3.org/1999/xlink" ><g id="svgg"><path id="path0" d="M1.401 0.558 C 1.401 0.865,1.086 1.199,0.701 1.300 C 0.001 1.482,-0.000 1.777,-0.000 175.347 C -0.000 348.978,0.001 349.212,0.701 349.212 C 1.090 349.212,1.401 349.445,1.401 349.737 C 1.401 350.204,23.685 350.263,199.851 350.263 C 388.662 350.263,398.294 350.233,398.182 349.650 C 398.070 349.067,388.266 349.028,199.820 348.862 L 1.576 348.687 1.576 175.131 L 1.576 1.576 199.912 1.488 C 397.957 1.401,398.249 1.399,398.249 0.700 C 398.249 0.001,397.986 0.000,199.825 0.000 C 18.501 0.000,1.401 0.048,1.401 0.558 M168.536 127.444 C 167.594 128.261,166.393 130.872,166.382 132.124 C 166.378 132.646,166.074 133.838,165.706 134.771 C 165.338 135.705,164.929 137.247,164.797 138.199 C 164.665 139.151,164.338 140.698,164.071 141.638 C 163.803 142.577,163.339 145.222,163.040 147.516 C 162.741 149.810,162.334 152.113,162.136 152.634 C 161.938 153.155,161.542 156.578,161.256 160.241 C 160.970 163.903,160.597 168.161,160.428 169.702 C 160.007 173.528,160.014 186.656,160.438 189.667 C 160.628 191.016,161.009 195.193,161.285 198.949 C 161.560 202.706,162.017 206.567,162.300 207.531 C 162.583 208.494,162.919 210.464,163.047 211.909 C 163.175 213.354,163.566 215.560,163.917 216.813 C 164.267 218.065,164.652 219.902,164.772 220.896 C 164.891 221.890,165.278 223.545,165.631 224.574 C 165.984 225.603,166.387 227.233,166.526 228.196 C 166.666 229.159,166.991 230.277,167.250 230.681 C 167.508 231.084,167.890 232.333,168.097 233.456 C 168.305 234.578,168.688 235.825,168.948 236.225 C 169.208 236.625,169.531 237.543,169.665 238.265 C 169.799 238.987,170.294 240.406,170.765 241.418 C 171.236 242.430,171.624 243.573,171.628 243.958 C 171.631 244.343,171.946 245.131,172.329 245.709 C 172.712 246.287,173.026 246.967,173.027 247.220 C 173.031 247.928,174.733 251.363,175.323 251.852 C 175.860 252.298,187.154 252.118,189.775 251.622 C 191.569 251.283,192.197 250.067,191.332 248.608 C 190.958 247.977,190.444 246.909,190.189 246.235 C 189.935 245.560,189.537 244.772,189.304 244.483 C 189.071 244.194,188.777 243.383,188.652 242.680 C 188.526 241.977,188.112 241.007,187.732 240.523 C 187.351 240.040,187.039 239.275,187.037 238.824 C 187.035 238.373,186.646 237.215,186.172 236.252 C 185.699 235.289,185.306 234.180,185.300 233.787 C 185.294 233.394,184.974 232.454,184.588 231.699 C 184.203 230.943,183.888 230.031,183.888 229.672 C 183.888 229.314,183.513 227.889,183.055 226.507 C 182.597 225.124,182.116 223.256,181.987 222.354 C 181.857 221.453,181.460 219.877,181.105 218.852 C 180.749 217.827,180.351 215.963,180.219 214.711 C 180.087 213.459,179.754 211.646,179.478 210.683 C 179.202 209.720,178.742 206.725,178.456 204.028 C 178.170 201.331,177.750 198.179,177.523 197.023 C 176.958 194.147,176.964 166.377,177.530 163.222 C 177.755 161.970,178.238 158.503,178.604 155.517 C 178.969 152.531,179.419 149.694,179.602 149.212 C 179.785 148.730,180.040 147.276,180.169 145.980 C 180.298 144.684,180.707 142.635,181.079 141.427 C 181.451 140.218,181.860 138.520,181.987 137.653 C 182.115 136.786,182.424 135.748,182.675 135.345 C 182.925 134.942,183.323 133.603,183.559 132.368 C 183.795 131.133,184.145 129.923,184.337 129.678 C 185.129 128.668,183.612 127.846,180.944 127.840 C 179.577 127.836,177.356 127.600,176.007 127.314 C 172.518 126.575,169.477 126.628,168.536 127.444 M183.136 129.010 C 183.562 129.524,183.113 133.213,182.537 133.925 C 182.359 134.145,181.939 135.587,181.604 137.128 C 181.269 138.669,180.857 140.105,180.688 140.319 C 180.519 140.533,180.229 141.873,180.044 143.296 C 179.860 144.720,179.452 146.830,179.138 147.986 C 178.825 149.142,178.437 151.743,178.276 153.765 C 178.115 155.788,177.720 158.389,177.397 159.545 C 176.163 163.967,176.325 198.295,177.596 201.599 C 177.814 202.164,178.076 204.124,178.179 205.954 C 178.281 207.785,178.741 210.757,179.200 212.560 C 179.659 214.363,180.035 216.378,180.035 217.037 C 180.035 217.697,180.281 218.822,180.582 219.538 C 180.883 220.255,181.366 222.083,181.655 223.602 C 181.944 225.120,182.389 226.696,182.642 227.104 C 182.896 227.512,183.198 228.595,183.314 229.511 C 183.430 230.426,183.843 231.799,184.232 232.562 C 184.621 233.324,184.939 234.313,184.939 234.759 C 184.939 235.206,185.161 235.889,185.433 236.277 C 185.705 236.665,186.185 237.869,186.500 238.953 C 186.815 240.036,187.302 241.112,187.582 241.345 C 187.862 241.577,188.091 242.118,188.091 242.548 C 188.091 242.977,188.485 244.069,188.967 244.975 C 189.448 245.881,189.842 246.829,189.842 247.082 C 189.842 247.334,190.178 247.968,190.588 248.489 C 192.123 250.441,188.810 251.489,181.099 251.489 L 175.491 251.489 174.952 250.350 C 174.655 249.724,174.182 248.818,173.901 248.336 C 173.620 247.855,173.388 247.194,173.385 246.868 C 173.382 246.542,173.076 245.753,172.705 245.116 C 172.334 244.479,171.916 243.327,171.777 242.557 C 171.637 241.786,171.321 240.841,171.073 240.455 C 170.826 240.070,170.431 238.967,170.195 238.004 C 169.959 237.040,169.476 235.703,169.121 235.031 C 168.766 234.360,168.476 233.333,168.476 232.750 C 168.476 232.166,168.156 231.090,167.763 230.358 C 167.371 229.627,166.913 227.928,166.744 226.584 C 166.575 225.239,166.270 223.939,166.067 223.693 C 165.863 223.448,165.446 221.681,165.140 219.767 C 164.834 217.853,164.377 215.657,164.123 214.886 C 163.870 214.116,163.553 212.078,163.419 210.357 C 163.285 208.637,162.933 206.588,162.635 205.804 C 162.271 204.843,162.002 202.268,161.809 197.898 C 161.652 194.335,161.357 190.000,161.153 188.266 C 160.707 184.469,160.689 173.545,161.125 171.103 C 161.297 170.140,161.538 166.436,161.662 162.872 C 161.828 158.068,162.049 155.894,162.516 154.466 C 162.863 153.406,163.260 151.042,163.399 149.212 C 163.538 147.382,163.859 145.254,164.112 144.483 C 164.366 143.713,164.823 141.613,165.128 139.816 C 165.433 138.020,165.918 136.097,166.204 135.543 C 166.491 134.989,166.741 133.937,166.760 133.205 C 166.807 131.394,167.109 130.505,168.036 129.445 L 168.822 128.546 175.787 128.546 C 181.138 128.546,182.840 128.654,183.136 129.010 M145.304 129.745 C 143.829 129.972,142.407 130.336,142.145 130.554 C 141.883 130.771,140.568 131.137,139.223 131.366 C 137.878 131.595,136.529 132.000,136.225 132.266 C 135.920 132.532,135.403 132.750,135.075 132.750 C 132.645 132.750,131.542 134.227,131.206 137.932 C 131.096 139.145,130.826 140.472,130.607 140.881 C 130.388 141.291,130.001 143.057,129.746 144.806 C 129.492 146.555,129.037 149.089,128.735 150.438 C 128.434 151.786,128.044 154.466,127.870 156.392 C 127.695 158.319,127.292 162.417,126.973 165.499 C 126.226 172.713,126.384 192.691,127.237 198.949 C 127.539 201.165,127.966 204.597,128.185 206.577 C 128.405 208.557,128.791 210.764,129.043 211.481 C 129.295 212.198,129.618 214.037,129.761 215.567 C 129.903 217.097,130.319 219.285,130.684 220.429 C 131.050 221.572,131.349 222.877,131.349 223.327 C 131.349 223.778,131.743 225.354,132.224 226.829 C 132.706 228.304,133.100 229.811,133.100 230.178 C 133.100 230.544,133.494 231.780,133.975 232.925 C 134.457 234.069,134.851 235.369,134.851 235.813 C 134.851 236.258,135.079 236.947,135.358 237.345 C 135.636 237.742,136.052 238.841,136.283 239.787 C 136.513 240.732,136.920 241.900,137.186 242.382 C 137.453 242.863,137.871 243.967,138.115 244.834 C 138.635 246.681,141.008 247.912,145.534 248.681 C 146.883 248.910,148.979 249.396,150.194 249.762 C 152.588 250.483,157.108 250.738,157.662 250.184 C 158.008 249.838,157.794 249.202,156.033 245.359 C 154.439 241.879,153.835 240.431,153.404 239.054 C 153.163 238.284,152.751 237.342,152.490 236.962 C 152.228 236.582,152.009 235.873,152.003 235.386 C 151.997 234.899,151.604 233.713,151.131 232.750 C 150.657 231.786,150.268 230.555,150.266 230.012 C 150.264 229.470,149.957 228.288,149.582 227.385 C 149.208 226.483,148.718 224.799,148.494 223.643 C 148.269 222.487,147.951 221.375,147.787 221.172 C 147.622 220.968,147.309 219.629,147.091 218.194 C 146.873 216.760,146.407 214.483,146.057 213.135 C 145.706 211.786,145.323 209.501,145.205 208.056 C 145.087 206.611,144.757 204.483,144.470 203.327 C 143.041 197.559,143.051 162.550,144.484 156.743 C 144.769 155.587,145.098 153.301,145.215 151.664 C 145.331 150.026,145.581 148.135,145.770 147.461 C 146.509 144.817,146.765 143.697,147.125 141.511 C 147.332 140.262,147.714 138.528,147.976 137.658 C 148.237 136.789,148.798 134.939,149.222 133.548 C 150.118 130.610,149.970 129.224,148.767 129.289 C 148.338 129.312,146.779 129.517,145.304 129.745 M148.804 130.605 C 149.191 130.850,149.176 131.186,148.717 132.538 C 148.411 133.439,148.161 134.490,148.161 134.875 C 148.161 135.259,147.911 136.160,147.605 136.876 C 147.299 137.593,146.836 139.440,146.576 140.981 C 146.316 142.522,145.857 144.645,145.556 145.698 C 145.255 146.751,145.009 148.256,145.009 149.042 C 145.009 149.828,144.707 151.882,144.339 153.607 C 142.264 163.323,142.130 197.202,144.135 205.429 C 144.416 206.585,144.814 209.085,145.020 210.984 C 145.225 212.883,145.605 214.774,145.865 215.187 C 146.124 215.599,146.446 217.015,146.580 218.333 C 146.713 219.651,147.120 221.384,147.484 222.186 C 147.848 222.987,148.149 224.079,148.153 224.613 C 148.158 225.146,148.555 226.710,149.037 228.089 C 149.518 229.467,149.912 230.849,149.912 231.160 C 149.912 231.471,150.207 232.304,150.568 233.011 C 150.928 233.718,151.409 235.037,151.637 235.943 C 151.865 236.848,152.280 237.914,152.558 238.312 C 152.837 238.710,153.065 239.352,153.065 239.740 C 153.065 240.128,153.445 241.236,153.911 242.202 C 157.157 248.942,157.339 249.501,156.403 249.860 C 155.635 250.155,152.324 249.707,151.243 249.163 C 150.722 248.900,149.146 248.542,147.740 248.366 C 145.391 248.072,141.884 247.074,139.770 246.097 C 139.199 245.833,138.787 245.232,138.543 244.304 C 138.342 243.536,137.915 242.429,137.595 241.844 C 137.275 241.260,136.899 240.156,136.760 239.392 C 136.621 238.629,136.235 237.452,135.902 236.778 C 135.569 236.103,135.184 234.921,135.048 234.151 C 134.911 233.380,134.600 232.434,134.357 232.049 C 134.114 231.664,133.716 230.326,133.473 229.076 C 133.230 227.827,132.831 226.408,132.585 225.924 C 132.339 225.440,132.030 224.098,131.898 222.942 C 131.766 221.786,131.365 219.972,131.007 218.910 C 130.649 217.849,130.248 215.800,130.114 214.357 C 129.981 212.914,129.586 210.552,129.237 209.107 C 128.887 207.662,128.498 204.746,128.372 202.627 C 128.247 200.508,127.912 197.513,127.630 195.972 C 126.956 192.299,126.648 178.526,127.093 171.979 C 127.720 162.756,128.571 154.687,129.254 151.489 C 129.624 149.755,130.028 147.312,130.150 146.060 C 130.273 144.807,130.662 142.916,131.015 141.856 C 131.368 140.797,131.762 138.877,131.891 137.591 C 132.169 134.811,132.846 134.000,135.201 133.620 C 136.068 133.480,137.341 133.081,138.029 132.732 C 138.718 132.383,140.240 131.989,141.412 131.857 C 142.583 131.724,143.990 131.320,144.538 130.959 C 145.569 130.279,147.975 130.080,148.804 130.605 M111.433 144.757 C 110.786 145.148,109.762 145.933,109.156 146.501 C 108.551 147.070,107.646 147.794,107.145 148.111 C 104.086 150.044,95.450 158.614,94.953 160.210 C 93.279 165.578,92.690 187.415,93.973 196.497 C 94.286 198.713,94.702 202.301,94.897 204.472 C 95.093 206.642,95.402 208.697,95.585 209.038 C 95.767 209.379,96.082 211.136,96.283 212.942 C 96.485 214.749,96.963 217.344,97.347 218.709 C 97.730 220.074,98.133 221.902,98.243 222.772 C 98.491 224.740,101.005 227.578,103.590 228.809 C 104.024 229.015,104.378 229.301,104.378 229.444 C 104.378 229.586,104.891 230.030,105.517 230.430 C 106.143 230.829,107.151 231.515,107.757 231.953 C 110.517 233.947,112.206 235.071,113.241 235.601 C 113.857 235.917,114.440 236.271,114.536 236.389 C 114.892 236.824,118.335 238.529,118.858 238.529 C 119.734 238.529,119.905 237.845,119.326 236.660 C 118.728 235.435,117.829 232.805,117.272 230.648 C 117.073 229.877,116.613 228.573,116.249 227.749 C 115.885 226.925,115.587 225.897,115.587 225.465 C 115.587 225.032,115.260 223.578,114.861 222.234 C 114.463 220.890,113.910 218.399,113.634 216.698 C 113.357 214.998,112.973 213.312,112.780 212.951 C 112.587 212.590,112.266 210.278,112.067 207.811 C 111.868 205.345,111.466 202.303,111.176 201.051 C 109.869 195.427,109.901 164.535,111.220 158.849 C 111.495 157.664,111.873 154.945,112.061 152.806 C 112.249 150.666,112.646 148.333,112.944 147.620 C 114.044 144.987,113.321 143.617,111.433 144.757 M112.785 145.842 C 112.785 146.107,112.548 146.890,112.259 147.582 C 111.952 148.317,111.734 149.921,111.734 151.446 C 111.734 153.105,111.475 154.861,111.022 156.274 C 109.291 161.674,109.272 197.566,110.997 203.853 C 111.442 205.477,111.720 207.562,111.726 209.315 C 111.731 211.246,111.962 212.809,112.451 214.218 C 112.845 215.356,113.261 217.312,113.375 218.564 C 113.489 219.816,113.788 221.249,114.039 221.748 C 114.290 222.247,114.681 223.744,114.908 225.075 C 115.134 226.406,115.542 227.750,115.814 228.060 C 116.086 228.371,116.456 229.533,116.637 230.644 C 116.818 231.755,117.195 233.014,117.477 233.443 C 118.137 234.451,118.547 236.639,118.125 236.899 C 117.587 237.232,115.388 236.475,114.709 235.725 C 114.362 235.341,113.792 235.026,113.444 235.026 C 113.097 235.026,112.509 234.701,112.138 234.303 C 111.767 233.905,110.618 233.047,109.585 232.395 C 108.551 231.744,107.456 230.967,107.151 230.667 C 106.846 230.368,106.432 230.123,106.231 230.123 C 106.030 230.123,105.649 229.862,105.385 229.544 C 105.121 229.226,104.037 228.328,102.978 227.550 C 99.621 225.084,99.182 224.439,98.565 221.063 C 98.260 219.400,97.843 217.644,97.637 217.163 C 97.431 216.681,97.058 214.632,96.809 212.609 C 96.560 210.587,96.112 208.070,95.814 207.016 C 95.515 205.963,95.271 204.264,95.271 203.241 C 95.271 202.218,95.018 199.061,94.707 196.225 C 93.130 181.811,94.359 159.019,96.713 159.019 C 96.883 159.019,97.023 158.844,97.023 158.631 C 97.023 158.228,102.290 152.980,104.542 151.138 C 105.249 150.560,106.250 149.734,106.767 149.302 C 107.283 148.869,108.144 148.160,108.679 147.725 C 109.214 147.291,109.949 146.674,110.311 146.354 C 110.885 145.847,111.588 145.544,112.522 145.400 C 112.666 145.377,112.785 145.576,112.785 145.842 M207.189 172.733 C 200.425 176.299,199.331 187.692,205.299 192.401 C 213.168 198.608,221.340 180.690,213.765 173.839 C 211.090 171.420,210.022 171.240,207.189 172.733 M211.485 172.999 C 213.303 173.936,214.943 175.785,215.241 177.233 C 215.379 177.907,215.614 178.616,215.763 178.809 C 216.285 179.486,216.495 182.003,216.145 183.376 C 214.694 189.060,213.897 190.433,211.022 192.207 C 205.215 195.788,199.754 186.721,202.953 178.810 C 204.957 173.855,208.484 171.452,211.485 172.999 M237.726 176.071 C 234.580 178.309,233.275 183.133,234.468 188.119 C 236.046 194.718,242.249 196.304,245.765 191.008 L 247.085 189.018 247.085 184.714 C 247.085 180.909,247.001 180.296,246.359 179.428 C 245.959 178.887,245.529 178.120,245.403 177.723 C 244.650 175.349,240.112 174.373,237.726 176.071 M243.088 176.319 C 245.442 177.575,245.435 178.583,243.072 178.512 C 240.038 178.422,238.863 180.801,241.048 182.611 C 242.843 184.098,244.288 183.456,245.230 180.754 C 245.612 179.658,245.673 179.622,246.113 180.223 C 246.788 181.147,246.755 187.954,246.069 189.142 C 245.792 189.623,245.411 190.354,245.223 190.766 C 242.793 196.089,235.971 193.725,234.958 187.208 C 233.735 179.345,238.014 173.614,243.088 176.319 M210.405 177.035 C 208.946 178.494,209.567 181.124,211.484 181.605 C 212.252 181.798,212.601 181.643,213.388 180.763 C 213.917 180.170,214.511 179.685,214.706 179.685 C 214.901 179.685,215.061 179.527,215.061 179.335 C 215.061 179.142,214.864 178.981,214.623 178.977 C 214.383 178.972,213.949 178.460,213.660 177.838 C 213.051 176.527,211.337 176.104,210.405 177.035 M213.194 178.261 C 213.743 179.715,212.961 180.835,211.625 180.508 C 210.426 180.215,210.098 179.731,210.357 178.637 C 210.765 176.912,212.594 176.670,213.194 178.261 M243.673 179.746 C 244.725 180.735,244.695 181.148,243.505 182.028 L 242.527 182.751 241.579 181.935 C 240.434 180.950,240.423 180.826,241.392 179.795 C 242.335 178.791,242.649 178.785,243.673 179.746 " stroke="none" fill="#6b83aa" fill-rule="evenodd"></path><path id="path1" d="M236.778 86.474 C 236.296 86.633,235.162 87.101,234.257 87.514 C 233.353 87.928,232.471 88.266,232.298 88.266 C 232.124 88.266,231.701 88.577,231.357 88.958 C 231.012 89.338,230.397 89.754,229.989 89.881 C 229.581 90.009,228.774 90.487,228.196 90.943 C 226.954 91.925,223.927 94.565,223.348 95.172 C 219.689 99.013,218.545 100.292,217.513 101.697 C 216.839 102.616,215.654 104.186,214.880 105.186 C 214.107 106.187,213.066 107.636,212.568 108.406 C 209.114 113.749,208.349 114.980,208.153 115.512 C 208.032 115.842,207.566 116.600,207.119 117.196 C 206.671 117.792,206.305 118.489,206.305 118.745 C 206.305 119.000,206.083 119.458,205.813 119.762 C 205.542 120.066,204.658 121.617,203.848 123.208 C 203.038 124.799,202.257 126.174,202.111 126.264 C 201.966 126.353,201.658 127.101,201.426 127.924 C 201.195 128.748,200.572 129.952,200.041 130.600 L 199.077 131.778 197.700 131.076 C 196.891 130.664,195.165 130.266,193.520 130.112 C 191.979 129.969,190.107 129.637,189.361 129.374 C 185.712 128.091,184.227 128.857,183.558 132.368 C 183.323 133.603,182.925 134.942,182.675 135.345 C 182.424 135.748,182.115 136.786,181.987 137.653 C 181.860 138.520,181.451 140.218,181.079 141.427 C 180.707 142.635,180.298 144.684,180.169 145.980 C 180.040 147.276,179.785 148.730,179.602 149.212 C 179.419 149.694,178.969 152.531,178.604 155.517 C 178.238 158.503,177.755 161.970,177.530 163.222 C 176.964 166.377,176.958 194.147,177.523 197.023 C 177.750 198.179,178.170 201.331,178.456 204.028 C 178.742 206.725,179.202 209.720,179.478 210.683 C 179.754 211.646,180.087 213.459,180.219 214.711 C 180.351 215.963,180.749 217.827,181.105 218.852 C 181.460 219.877,181.857 221.453,181.987 222.354 C 182.116 223.256,182.597 225.124,183.055 226.507 C 183.513 227.889,183.888 229.314,183.888 229.672 C 183.888 230.031,184.203 230.943,184.588 231.699 C 184.974 232.454,185.294 233.394,185.300 233.787 C 185.306 234.180,185.699 235.289,186.172 236.252 C 186.646 237.215,187.035 238.373,187.037 238.824 C 187.039 239.275,187.357 240.048,187.745 240.540 C 188.133 241.033,188.546 242.040,188.664 242.778 C 188.782 243.516,189.096 244.300,189.361 244.520 C 189.626 244.740,189.842 245.070,189.842 245.254 C 189.842 245.438,190.388 246.723,191.054 248.109 L 192.267 250.629 196.396 250.348 C 198.667 250.193,201.574 249.756,202.856 249.377 C 204.139 248.997,205.745 248.687,206.426 248.687 C 207.107 248.687,208.756 248.292,210.092 247.811 C 211.427 247.329,212.815 246.934,213.177 246.932 C 213.539 246.930,214.623 246.541,215.587 246.067 C 216.550 245.593,217.577 245.201,217.869 245.195 C 218.160 245.189,218.948 244.891,219.620 244.532 C 220.291 244.174,221.235 243.758,221.716 243.607 C 222.198 243.457,223.141 242.962,223.812 242.507 C 224.482 242.053,225.315 241.681,225.661 241.681 C 226.008 241.681,226.379 241.452,226.487 241.173 C 226.594 240.893,227.259 240.479,227.964 240.253 C 228.670 240.027,229.524 239.599,229.862 239.304 C 230.201 239.008,230.772 238.595,231.132 238.385 C 236.629 235.180,243.928 228.231,247.366 222.928 C 249.304 219.940,249.380 219.815,249.810 218.914 C 250.040 218.433,250.486 217.644,250.802 217.163 C 251.117 216.681,251.622 215.578,251.924 214.711 C 252.226 213.844,252.718 212.504,253.016 211.734 C 253.315 210.963,253.566 209.891,253.575 209.352 C 253.583 208.813,253.832 207.903,254.128 207.331 C 254.926 205.788,255.812 195.746,255.562 191.068 C 255.229 184.828,254.694 180.444,254.163 179.599 C 253.890 179.164,253.555 178.025,253.420 177.066 C 253.284 176.107,252.895 174.768,252.556 174.089 C 252.216 173.410,251.825 172.382,251.686 171.804 C 251.547 171.226,251.236 170.517,250.994 170.228 C 250.751 169.939,250.336 169.151,250.070 168.476 C 249.805 167.802,249.227 166.716,248.787 166.063 C 248.346 165.410,247.986 164.662,247.986 164.399 C 247.986 164.137,247.862 163.923,247.710 163.923 C 247.558 163.923,246.735 162.859,245.880 161.559 C 242.686 156.699,238.375 152.357,232.232 147.811 C 231.581 147.329,230.643 146.604,230.148 146.199 C 229.652 145.794,229.089 145.400,228.897 145.324 C 228.555 145.187,224.203 142.391,222.376 141.134 C 221.873 140.788,220.893 140.267,220.200 139.977 C 218.244 139.160,218.107 137.898,219.821 136.486 C 220.562 135.876,221.593 134.982,222.112 134.501 C 223.696 133.031,224.967 131.988,226.708 130.732 C 227.623 130.072,228.371 129.399,228.371 129.238 C 228.371 129.076,228.686 128.844,229.070 128.722 C 229.454 128.600,229.966 128.307,230.208 128.070 C 230.450 127.834,231.712 126.944,233.012 126.092 C 234.313 125.241,235.377 124.421,235.377 124.269 C 235.377 124.117,235.601 123.993,235.875 123.993 C 236.149 123.993,236.819 123.628,237.364 123.181 C 237.908 122.735,238.866 122.164,239.492 121.913 C 240.118 121.662,240.630 121.343,240.630 121.204 C 240.630 121.066,241.269 120.742,242.049 120.485 C 242.829 120.227,243.577 119.838,243.712 119.619 C 244.126 118.948,249.224 117.338,250.932 117.338 C 253.369 117.338,258.144 120.923,258.144 122.753 C 258.144 122.998,258.429 123.574,258.778 124.033 C 259.127 124.493,259.675 126.051,259.995 127.496 C 260.315 128.940,260.718 130.697,260.891 131.398 C 261.186 132.598,261.116 132.769,259.698 134.291 C 253.689 140.744,261.921 149.603,268.526 143.791 L 270.218 142.302 270.348 139.434 L 270.479 136.566 268.394 134.482 C 266.140 132.228,265.711 131.253,265.320 127.496 C 265.189 126.243,264.874 124.889,264.619 124.487 C 264.364 124.084,263.981 123.106,263.767 122.313 C 263.554 121.521,263.147 120.640,262.863 120.356 C 262.579 120.072,262.347 119.692,262.347 119.512 C 262.347 118.849,259.323 115.489,257.793 114.451 C 253.954 111.847,248.300 111.723,243.295 114.134 C 242.504 114.515,241.462 115.001,240.981 115.215 C 239.016 116.085,235.122 118.278,233.942 119.179 C 233.250 119.708,232.509 120.140,232.296 120.140 C 232.083 120.140,231.783 120.341,231.629 120.586 C 231.475 120.832,230.954 121.300,230.473 121.626 C 229.991 121.953,228.967 122.692,228.196 123.268 C 227.426 123.845,226.353 124.567,225.813 124.874 C 225.273 125.180,224.536 125.699,224.175 126.026 C 223.813 126.353,223.240 126.852,222.900 127.135 C 220.857 128.836,218.789 130.668,216.608 132.706 C 212.669 136.389,212.711 136.363,211.816 135.736 C 211.396 135.442,210.766 135.201,210.415 135.201 C 206.810 135.201,204.478 132.302,206.130 129.872 C 206.611 129.163,207.005 128.486,207.005 128.368 C 207.005 128.091,208.905 124.333,210.191 122.067 C 210.738 121.103,211.523 119.645,211.936 118.827 C 212.349 118.008,212.802 117.338,212.942 117.338 C 213.083 117.338,213.392 116.912,213.629 116.390 C 214.029 115.514,217.111 110.805,218.739 108.585 C 219.124 108.059,219.751 107.186,220.132 106.644 C 223.391 102.010,230.760 95.070,234.501 93.113 C 239.400 90.551,245.647 90.578,248.064 93.173 C 248.422 93.557,248.861 93.870,249.041 93.870 C 249.849 93.870,250.489 95.982,250.068 97.257 C 248.218 102.863,255.796 107.843,260.466 104.090 C 265.646 99.927,262.821 93.123,255.425 91.944 C 254.574 91.808,253.795 91.452,253.615 91.116 C 253.244 90.422,249.285 87.730,247.285 86.812 C 246.234 86.329,238.018 86.065,236.778 86.474 M164.974 127.716 C 164.492 127.762,161.891 127.972,159.194 128.183 C 149.463 128.942,150.722 128.277,149.216 133.450 C 148.795 134.895,148.237 136.789,147.976 137.658 C 147.714 138.528,147.332 140.262,147.125 141.511 C 146.765 143.697,146.509 144.817,145.770 147.461 C 145.581 148.135,145.331 150.026,145.215 151.664 C 145.098 153.301,144.769 155.587,144.484 156.743 C 143.051 162.550,143.041 197.559,144.470 203.327 C 144.757 204.483,145.087 206.611,145.205 208.056 C 145.323 209.501,145.706 211.786,146.057 213.135 C 146.407 214.483,146.873 216.760,147.091 218.194 C 147.309 219.629,147.622 220.968,147.787 221.172 C 147.951 221.375,148.269 222.487,148.494 223.643 C 148.718 224.799,149.208 226.483,149.582 227.385 C 149.957 228.288,150.264 229.470,150.266 230.012 C 150.268 230.555,150.657 231.786,151.131 232.750 C 151.604 233.713,151.997 234.899,152.003 235.386 C 152.009 235.873,152.228 236.582,152.490 236.962 C 152.751 237.342,153.163 238.284,153.404 239.054 C 153.841 240.448,154.497 242.019,156.040 245.359 C 156.485 246.322,157.122 247.776,157.457 248.589 C 158.568 251.286,160.659 251.839,169.760 251.839 C 175.053 251.839,175.031 251.851,173.898 249.538 C 173.432 248.588,173.046 247.574,173.038 247.285 C 173.031 246.996,172.712 246.287,172.329 245.709 C 171.946 245.131,171.631 244.343,171.628 243.958 C 171.624 243.573,171.236 242.430,170.765 241.418 C 170.294 240.406,169.799 238.987,169.665 238.265 C 169.531 237.543,169.208 236.625,168.948 236.225 C 168.688 235.825,168.305 234.578,168.097 233.456 C 167.890 232.333,167.508 231.084,167.250 230.681 C 166.991 230.277,166.666 229.159,166.526 228.196 C 166.387 227.233,165.984 225.603,165.631 224.574 C 165.278 223.545,164.891 221.890,164.772 220.896 C 164.652 219.902,164.267 218.065,163.917 216.813 C 163.566 215.560,163.175 213.354,163.047 211.909 C 162.919 210.464,162.583 208.494,162.300 207.531 C 162.017 206.567,161.560 202.706,161.285 198.949 C 161.009 195.193,160.628 191.016,160.438 189.667 C 160.014 186.656,160.007 173.528,160.428 169.702 C 160.597 168.161,160.970 163.903,161.256 160.241 C 161.542 156.578,161.938 153.155,162.136 152.634 C 162.334 152.113,162.741 149.810,163.040 147.516 C 163.339 145.222,163.802 142.577,164.068 141.638 C 164.333 140.698,164.650 139.221,164.772 138.354 C 164.893 137.487,165.293 135.832,165.660 134.676 C 166.307 132.640,167.029 129.916,167.178 128.950 C 167.277 128.305,166.041 127.614,164.974 127.716 M129.028 135.232 C 128.426 135.406,127.737 135.786,127.497 136.076 C 127.256 136.365,126.800 136.602,126.483 136.602 C 126.166 136.602,124.727 137.230,123.286 137.997 C 121.845 138.765,120.035 139.718,119.264 140.115 C 114.255 142.699,113.485 143.352,113.485 145.018 C 113.485 145.737,113.241 146.907,112.944 147.620 C 112.646 148.333,112.249 150.666,112.061 152.806 C 111.873 154.945,111.495 157.664,111.220 158.849 C 109.901 164.535,109.869 195.427,111.176 201.051 C 111.466 202.303,111.868 205.345,112.067 207.811 C 112.266 210.278,112.587 212.590,112.780 212.951 C 112.973 213.312,113.357 214.998,113.634 216.698 C 113.910 218.399,114.463 220.890,114.861 222.234 C 115.260 223.578,115.587 225.032,115.587 225.465 C 115.587 225.897,115.885 226.925,116.249 227.749 C 116.613 228.573,117.073 229.877,117.272 230.648 C 117.764 232.552,118.686 235.328,119.250 236.602 C 119.506 237.180,119.909 238.165,120.145 238.792 C 120.386 239.428,120.825 239.930,121.141 239.930 C 121.686 239.930,124.110 240.984,126.913 242.440 C 127.652 242.824,129.070 243.378,130.065 243.671 C 131.060 243.965,132.032 244.323,132.224 244.469 C 132.417 244.614,133.338 244.919,134.271 245.147 C 135.204 245.374,136.354 245.815,136.828 246.125 C 138.465 247.197,138.667 244.701,137.143 242.238 C 136.894 241.836,136.504 240.732,136.277 239.787 C 136.050 238.841,135.636 237.742,135.358 237.345 C 135.079 236.947,134.851 236.258,134.851 235.813 C 134.851 235.369,134.457 234.069,133.975 232.925 C 133.494 231.780,133.100 230.544,133.100 230.178 C 133.100 229.811,132.706 228.304,132.224 226.829 C 131.743 225.354,131.349 223.778,131.349 223.327 C 131.349 222.877,131.050 221.572,130.684 220.429 C 130.319 219.285,129.903 217.097,129.761 215.567 C 129.618 214.037,129.295 212.198,129.043 211.481 C 128.791 210.764,128.405 208.557,128.185 206.577 C 127.966 204.597,127.539 201.165,127.237 198.949 C 126.384 192.691,126.226 172.713,126.973 165.499 C 127.292 162.417,127.695 158.319,127.870 156.392 C 128.044 154.466,128.434 151.786,128.735 150.438 C 129.037 149.089,129.492 146.555,129.746 144.806 C 130.001 143.057,130.400 141.269,130.633 140.833 C 130.866 140.398,131.145 138.873,131.253 137.446 C 131.471 134.569,131.436 134.534,129.028 135.232 M92.995 162.447 C 92.609 162.778,91.843 163.653,91.292 164.390 C 90.740 165.127,89.874 166.189,89.365 166.749 C 87.948 168.312,86.947 169.539,85.532 171.450 C 83.840 173.736,82.288 175.451,79.541 178.069 C 78.306 179.247,76.651 180.841,75.863 181.611 C 75.075 182.382,73.485 183.643,72.329 184.413 C 71.173 185.184,70.177 185.928,70.114 186.067 C 70.052 186.206,68.819 186.971,67.375 187.769 C 64.243 189.497,63.445 190.667,64.790 191.557 C 68.478 193.996,76.780 202.063,87.391 213.518 C 92.312 218.832,97.073 223.452,97.636 223.461 C 98.296 223.471,98.168 221.171,97.365 218.611 C 96.981 217.384,96.498 214.868,96.292 213.019 C 96.086 211.171,95.767 209.379,95.585 209.038 C 95.402 208.697,95.093 206.642,94.897 204.472 C 94.702 202.301,94.286 198.713,93.973 196.497 C 92.905 188.937,93.206 167.645,94.452 162.609 C 94.689 161.650,94.010 161.574,92.995 162.447 M211.378 172.175 C 218.525 175.566,218.630 187.824,211.553 192.618 C 205.061 197.016,198.597 186.160,202.684 177.724 C 204.876 173.199,208.569 170.842,211.378 172.175 M243.747 176.066 C 244.532 176.580,245.277 177.326,245.403 177.723 C 245.529 178.120,245.959 178.887,246.359 179.428 C 247.001 180.296,247.085 180.909,247.085 184.714 L 247.085 189.018 245.765 191.008 C 242.249 196.304,236.046 194.718,234.468 188.119 C 232.439 179.635,238.055 172.340,243.747 176.066 " stroke="none" fill="#f6d36a" fill-rule="evenodd"></path><path id="path2" d="M2.685 2.685 C 2.557 2.814,2.452 80.500,2.452 175.321 L 2.452 347.723 3.546 347.942 C 5.103 348.253,395.891 348.205,396.357 347.893 C 396.569 347.752,396.924 347.291,397.145 346.871 C 397.843 345.545,397.712 4.836,397.014 3.485 L 396.479 2.452 199.699 2.452 C 91.470 2.452,2.814 2.557,2.685 2.685 M201.727 29.460 C 207.427 31.290,215.061 36.824,215.061 39.126 C 215.061 39.316,215.373 39.754,215.755 40.099 C 216.136 40.444,216.551 41.296,216.675 41.992 C 216.799 42.688,217.099 43.494,217.341 43.783 C 217.945 44.504,218.107 45.158,218.726 49.361 C 219.677 55.813,219.232 62.279,217.508 67.075 C 217.162 68.039,216.774 69.299,216.646 69.877 C 216.518 70.455,216.126 71.559,215.775 72.329 C 215.424 73.100,214.624 74.912,213.998 76.357 C 213.371 77.802,212.665 79.221,212.428 79.510 C 212.191 79.799,211.808 80.624,211.577 81.344 C 211.346 82.063,210.995 82.752,210.797 82.875 C 210.599 82.998,210.214 83.591,209.941 84.193 C 209.669 84.796,208.981 86.077,208.413 87.040 C 207.845 88.004,207.072 89.444,206.696 90.241 C 206.320 91.039,205.881 91.748,205.721 91.817 C 205.560 91.887,205.151 92.496,204.811 93.170 C 204.471 93.844,203.784 95.105,203.284 95.972 C 202.784 96.839,202.011 98.179,201.566 98.949 C 201.122 99.720,200.028 101.769,199.137 103.503 C 198.245 105.236,197.168 107.230,196.744 107.932 C 196.319 108.635,195.215 110.566,194.290 112.223 C 193.365 113.880,192.493 115.236,192.353 115.236 C 192.212 115.236,191.909 115.670,191.679 116.200 C 191.449 116.729,190.782 117.951,190.197 118.914 C 189.611 119.877,188.818 121.296,188.434 122.067 C 188.049 122.837,187.082 124.374,186.283 125.482 C 184.661 127.734,184.922 128.897,187.051 128.897 C 187.574 128.897,188.614 129.112,189.361 129.374 C 190.107 129.637,191.979 129.969,193.520 130.112 C 195.164 130.266,196.891 130.664,197.699 131.076 C 199.039 131.759,199.089 131.760,199.545 131.125 C 199.802 130.766,200.246 130.196,200.531 129.857 C 200.816 129.519,201.182 128.652,201.346 127.931 C 201.510 127.210,202.059 126.012,202.566 125.269 C 203.073 124.526,203.905 123.028,204.416 121.941 C 204.927 120.854,205.561 119.839,205.825 119.685 C 206.089 119.531,206.305 119.109,206.305 118.749 C 206.305 118.388,206.699 117.624,207.180 117.052 C 207.662 116.479,208.059 115.797,208.062 115.536 C 208.069 115.061,209.718 112.373,210.611 111.384 C 210.872 111.095,211.290 110.346,211.539 109.720 C 211.789 109.094,212.136 108.581,212.310 108.581 C 212.484 108.581,212.788 108.158,212.985 107.640 C 213.182 107.122,213.651 106.482,214.027 106.219 C 214.403 105.955,214.711 105.592,214.711 105.412 C 214.711 104.922,216.855 102.144,219.294 99.475 C 220.086 98.608,220.973 97.544,221.265 97.110 C 221.558 96.677,222.005 96.322,222.258 96.322 C 222.512 96.322,222.817 96.015,222.937 95.640 C 223.056 95.264,223.452 94.862,223.818 94.746 C 224.183 94.630,224.580 94.228,224.699 93.852 C 224.818 93.477,225.055 93.170,225.224 93.170 C 225.506 93.170,226.169 92.631,228.223 90.733 C 228.623 90.364,229.354 89.960,229.848 89.836 C 230.342 89.712,231.078 89.229,231.483 88.763 C 231.888 88.297,232.448 87.916,232.727 87.916 C 233.006 87.916,233.820 87.570,234.536 87.148 C 236.929 85.737,246.735 85.799,248.277 87.235 C 248.679 87.610,249.229 87.916,249.499 87.916 C 250.054 87.916,252.264 89.504,253.603 90.865 C 254.250 91.523,254.871 91.775,255.880 91.791 C 257.797 91.822,261.301 93.727,261.959 95.096 C 262.236 95.674,262.691 96.596,262.970 97.144 C 264.713 100.573,260.939 105.429,256.530 105.429 L 253.925 105.429 252.007 103.481 C 249.818 101.256,249.560 100.562,249.860 97.697 C 250.080 95.587,249.704 93.870,249.022 93.870 C 248.812 93.870,248.099 93.458,247.437 92.953 C 244.862 90.989,237.692 91.028,234.991 93.021 C 234.358 93.488,233.611 93.870,233.332 93.870 C 232.130 93.870,221.212 104.532,220.281 106.616 C 220.099 107.023,219.472 107.986,218.887 108.757 C 218.303 109.527,217.503 110.670,217.109 111.296 C 216.715 111.922,216.268 112.434,216.116 112.434 C 215.963 112.434,215.586 113.065,215.277 113.835 C 214.969 114.606,214.575 115.236,214.402 115.236 C 214.228 115.236,213.995 115.591,213.882 116.025 C 213.770 116.458,213.280 117.271,212.794 117.830 C 212.307 118.390,211.909 119.035,211.909 119.265 C 211.909 119.494,211.594 119.967,211.208 120.315 C 210.823 120.664,210.508 121.219,210.508 121.548 C 210.508 121.878,210.202 122.536,209.828 123.012 C 209.454 123.487,208.885 124.533,208.564 125.336 C 208.243 126.138,207.847 126.795,207.684 126.795 C 207.521 126.795,207.284 127.348,207.157 128.024 C 207.030 128.700,206.627 129.633,206.262 130.097 C 204.518 132.314,206.867 135.201,210.415 135.201 C 210.766 135.201,211.390 135.438,211.803 135.727 C 212.630 136.306,213.334 135.814,217.224 131.933 C 219.355 129.806,224.160 125.818,226.788 123.993 C 227.482 123.511,228.617 122.684,229.310 122.154 C 230.002 121.624,230.705 121.191,230.871 121.191 C 231.037 121.191,231.449 120.945,231.786 120.643 C 233.160 119.417,235.149 118.039,235.546 118.039 C 235.778 118.039,236.251 117.726,236.596 117.345 C 236.942 116.963,237.743 116.554,238.378 116.435 C 239.012 116.316,239.613 116.006,239.713 115.746 C 239.812 115.486,240.572 115.093,241.401 114.872 C 242.229 114.651,243.157 114.249,243.461 113.977 C 243.766 113.705,244.948 113.311,246.088 113.101 C 247.228 112.892,248.319 112.597,248.511 112.446 C 249.444 111.717,252.131 111.701,253.467 112.417 C 254.203 112.812,255.164 113.135,255.602 113.135 C 256.041 113.135,256.669 113.450,256.999 113.835 C 257.329 114.221,257.804 114.536,258.054 114.536 C 258.605 114.536,261.996 118.026,261.996 118.593 C 261.996 118.814,262.325 119.413,262.727 119.923 C 263.128 120.434,263.617 121.440,263.812 122.160 C 264.008 122.879,264.372 123.704,264.622 123.993 C 264.871 124.282,265.234 125.779,265.426 127.320 C 265.903 131.133,266.456 132.399,268.473 134.305 C 270.312 136.041,270.877 138.343,270.266 141.602 C 269.595 145.176,262.865 147.019,259.783 144.472 C 258.626 143.515,257.143 140.330,257.343 139.229 C 257.874 136.305,258.436 135.281,260.661 133.187 C 261.169 132.710,261.188 132.503,260.801 131.727 C 260.552 131.230,260.144 129.562,259.893 128.021 C 259.642 126.480,259.173 124.825,258.851 124.343 C 258.529 123.862,258.062 122.955,257.812 122.329 C 257.562 121.703,257.229 121.191,257.070 121.191 C 256.912 121.191,256.503 120.718,256.161 120.140 C 255.820 119.562,255.393 119.089,255.211 119.089 C 255.030 119.089,254.366 118.695,253.734 118.214 C 252.412 117.205,249.337 117.000,248.220 117.846 C 247.867 118.114,246.764 118.525,245.768 118.761 C 244.773 118.996,243.839 119.391,243.693 119.638 C 243.547 119.885,242.837 120.280,242.116 120.515 C 241.395 120.750,240.727 121.059,240.630 121.202 C 240.421 121.512,238.483 122.695,236.778 123.552 C 236.103 123.891,235.394 124.346,235.201 124.564 C 235.009 124.782,233.984 125.535,232.925 126.236 C 230.808 127.637,229.693 128.447,228.775 129.247 C 228.444 129.536,227.411 130.324,226.479 130.998 C 225.548 131.673,224.431 132.579,223.999 133.012 C 223.566 133.446,223.116 133.800,222.999 133.800 C 222.881 133.800,221.823 134.741,220.648 135.892 C 218.203 138.284,218.117 139.107,220.221 139.986 C 220.903 140.271,221.873 140.788,222.376 141.134 C 224.203 142.391,228.555 145.187,228.897 145.324 C 229.089 145.400,229.652 145.794,230.148 146.199 C 230.643 146.604,231.581 147.329,232.232 147.811 C 238.375 152.357,242.686 156.699,245.880 161.559 C 246.735 162.859,247.558 163.923,247.710 163.923 C 247.862 163.923,247.986 164.137,247.986 164.399 C 247.986 164.662,248.346 165.410,248.787 166.063 C 249.227 166.716,249.805 167.802,250.070 168.476 C 250.336 169.151,250.751 169.939,250.994 170.228 C 251.236 170.517,251.547 171.226,251.686 171.804 C 251.825 172.382,252.216 173.410,252.556 174.089 C 252.895 174.768,253.284 176.107,253.420 177.066 C 253.555 178.025,253.890 179.164,254.163 179.599 C 254.694 180.444,255.229 184.828,255.562 191.068 C 255.812 195.746,254.926 205.788,254.128 207.331 C 253.832 207.903,253.583 208.813,253.575 209.352 C 253.566 209.891,253.315 210.963,253.016 211.734 C 252.718 212.504,252.226 213.844,251.924 214.711 C 251.622 215.578,251.117 216.681,250.802 217.163 C 250.486 217.644,250.040 218.433,249.810 218.914 C 249.380 219.815,249.304 219.940,247.366 222.928 C 243.928 228.231,236.629 235.180,231.132 238.385 C 230.772 238.595,230.201 239.008,229.862 239.304 C 229.524 239.599,228.670 240.027,227.964 240.253 C 227.259 240.479,226.594 240.893,226.487 241.173 C 226.379 241.452,226.008 241.681,225.661 241.681 C 225.315 241.681,224.482 242.053,223.812 242.507 C 223.141 242.962,222.198 243.457,221.716 243.607 C 221.235 243.758,220.291 244.174,219.620 244.532 C 218.948 244.891,218.160 245.189,217.869 245.195 C 217.577 245.201,216.550 245.593,215.587 246.067 C 214.623 246.541,213.539 246.930,213.177 246.932 C 212.815 246.934,211.427 247.329,210.092 247.811 C 208.756 248.292,207.082 248.689,206.371 248.691 C 205.660 248.694,204.110 248.999,202.926 249.370 C 201.691 249.758,199.079 250.148,196.797 250.286 C 193.070 250.512,192.772 250.585,192.065 251.446 L 191.310 252.364 182.783 252.322 C 174.039 252.279,162.385 251.748,160.702 251.315 C 160.182 251.181,159.184 251.261,158.484 251.492 C 157.443 251.836,156.945 251.816,155.751 251.383 C 154.948 251.092,152.966 250.754,151.346 250.633 C 149.726 250.512,147.992 250.185,147.493 249.907 C 146.994 249.629,145.427 249.251,144.012 249.068 C 142.597 248.885,141.179 248.509,140.860 248.232 C 140.541 247.956,139.825 247.621,139.269 247.489 C 138.713 247.356,137.767 246.874,137.168 246.417 C 136.568 245.961,135.289 245.395,134.326 245.160 C 133.363 244.925,132.417 244.614,132.224 244.469 C 132.032 244.323,131.060 243.965,130.065 243.671 C 129.070 243.378,127.652 242.833,126.913 242.459 C 126.174 242.086,125.018 241.503,124.343 241.164 C 122.821 240.398,119.696 239.362,117.941 239.040 C 117.189 238.902,116.466 238.513,116.265 238.138 C 116.071 237.775,115.615 237.478,115.251 237.478 C 114.887 237.478,114.121 237.084,113.549 236.602 C 112.977 236.121,112.280 235.727,112.000 235.727 C 111.721 235.727,111.210 235.416,110.866 235.035 C 110.522 234.655,109.907 234.239,109.498 234.111 C 109.090 233.983,108.416 233.545,107.999 233.139 C 106.819 231.987,104.884 230.591,102.543 229.202 C 102.177 228.985,101.643 228.473,101.357 228.064 C 101.070 227.655,100.619 227.320,100.354 227.320 C 100.089 227.320,99.775 227.013,99.655 226.638 C 99.536 226.262,99.147 225.863,98.791 225.750 C 98.435 225.637,98.047 225.160,97.929 224.691 C 97.811 224.222,96.899 223.085,95.903 222.164 C 93.132 219.605,91.581 218.029,87.391 213.512 C 76.668 201.954,68.472 193.992,64.790 191.557 C 63.445 190.667,64.243 189.497,67.375 187.769 C 68.819 186.971,70.052 186.206,70.114 186.067 C 70.177 185.928,71.173 185.184,72.329 184.413 C 73.485 183.643,75.075 182.382,75.863 181.611 C 76.651 180.841,78.306 179.247,79.541 178.069 C 82.288 175.451,83.840 173.736,85.532 171.450 C 87.060 169.386,87.794 168.492,89.699 166.375 C 90.479 165.508,91.377 164.365,91.694 163.835 C 92.011 163.306,92.394 162.872,92.545 162.872 C 92.696 162.872,92.820 162.696,92.820 162.480 C 92.820 161.745,94.742 158.939,96.410 157.239 C 97.325 156.307,98.074 155.391,98.074 155.204 C 98.074 155.016,98.381 154.766,98.756 154.647 C 99.132 154.528,99.536 154.123,99.655 153.747 C 99.775 153.372,100.080 153.065,100.334 153.065 C 100.587 153.065,101.053 152.671,101.369 152.189 C 101.684 151.708,102.175 151.313,102.460 151.313 C 102.744 151.313,102.977 151.083,102.977 150.800 C 102.977 150.518,103.289 150.120,103.670 149.917 C 104.051 149.713,104.740 149.195,105.202 148.766 C 105.663 148.337,106.627 147.592,107.345 147.110 C 108.062 146.629,108.977 145.880,109.379 145.447 C 109.780 145.013,110.315 144.658,110.568 144.658 C 110.821 144.658,111.224 144.343,111.465 143.958 C 111.776 143.459,112.282 143.257,113.219 143.257 C 113.943 143.257,114.536 143.114,114.536 142.938 C 114.536 142.763,115.206 142.273,116.025 141.849 C 116.843 141.425,118.263 140.662,119.179 140.154 C 120.095 139.645,122.183 138.540,123.820 137.697 C 127.212 135.950,127.272 135.861,125.482 135.227 C 124.759 134.971,123.976 134.609,123.742 134.423 C 123.130 133.936,119.387 131.699,119.185 131.699 C 119.092 131.699,118.547 131.305,117.975 130.823 C 117.402 130.342,116.644 129.947,116.290 129.947 C 115.935 129.947,115.593 129.804,115.528 129.628 C 115.397 129.268,111.802 126.795,111.409 126.795 C 111.270 126.795,110.785 126.401,110.333 125.919 C 109.880 125.438,109.296 125.044,109.035 125.044 C 108.773 125.044,108.474 124.820,108.369 124.548 C 108.264 124.275,107.599 123.654,106.891 123.169 C 106.183 122.683,105.053 121.802,104.378 121.209 C 103.704 120.617,102.624 119.701,101.979 119.173 C 100.385 117.870,89.425 106.952,87.985 105.233 C 85.540 102.314,82.282 97.845,81.744 96.673 C 81.435 95.998,81.066 95.368,80.923 95.271 C 80.781 95.175,80.154 93.993,79.531 92.644 C 78.907 91.296,78.017 89.444,77.552 88.529 C 77.088 87.614,76.704 86.589,76.700 86.252 C 76.696 85.915,76.373 84.936,75.983 84.077 C 74.026 79.762,74.007 66.286,75.954 62.441 C 76.321 61.715,76.733 60.609,76.868 59.982 C 77.003 59.356,77.241 58.844,77.396 58.844 C 77.551 58.844,77.945 58.282,78.271 57.595 C 80.099 53.744,84.971 48.827,89.047 46.719 C 89.658 46.403,90.374 45.928,90.638 45.664 C 90.902 45.400,91.352 45.184,91.638 45.184 C 91.924 45.184,92.898 44.834,93.802 44.405 C 96.603 43.080,107.657 43.016,111.333 44.304 C 113.895 45.202,117.274 46.643,118.389 47.313 C 118.678 47.486,119.476 47.934,120.164 48.307 C 120.851 48.680,121.619 49.234,121.870 49.537 C 122.122 49.840,122.527 50.088,122.772 50.088 C 123.781 50.088,134.851 61.850,134.851 62.923 C 134.851 63.051,135.245 63.673,135.727 64.304 C 136.208 64.936,136.602 65.605,136.602 65.791 C 136.602 65.977,137.226 67.130,137.989 68.354 C 139.707 71.110,141.506 74.579,141.506 75.135 C 141.506 75.365,141.920 76.325,142.425 77.268 C 142.931 78.212,143.472 79.378,143.627 79.860 C 144.109 81.351,145.563 84.689,145.944 85.176 C 146.143 85.431,146.487 86.573,146.708 87.714 C 146.930 88.855,147.347 90.049,147.636 90.368 C 147.925 90.687,148.161 91.373,148.161 91.893 C 148.161 92.412,148.492 93.739,148.896 94.842 C 149.300 95.945,149.827 97.729,150.067 98.806 C 150.307 99.883,150.639 100.985,150.805 101.254 C 150.972 101.523,151.378 102.927,151.708 104.374 C 152.038 105.821,152.562 107.793,152.872 108.757 C 154.142 112.699,154.817 115.136,155.007 116.462 C 155.343 118.817,155.517 119.440,155.839 119.440 C 156.664 119.440,156.918 116.806,156.918 108.231 C 156.918 103.280,157.068 98.772,157.252 98.213 C 157.436 97.655,157.838 94.282,158.146 90.718 C 158.455 87.154,158.948 83.298,159.242 82.149 C 159.537 81.000,159.921 78.675,160.096 76.982 C 160.271 75.289,160.731 73.003,161.118 71.903 C 161.505 70.802,161.821 69.340,161.821 68.654 C 161.821 67.968,162.046 67.086,162.320 66.695 C 162.594 66.303,163.081 64.968,163.402 63.727 C 163.723 62.486,164.110 61.313,164.262 61.121 C 164.414 60.928,164.793 59.885,165.103 58.802 C 165.413 57.720,165.905 56.637,166.196 56.395 C 166.487 56.154,166.725 55.612,166.725 55.192 C 166.725 54.771,167.119 53.893,167.601 53.240 C 168.082 52.587,168.476 51.780,168.476 51.446 C 168.476 51.111,168.719 50.596,169.014 50.300 C 169.310 50.004,169.790 49.244,170.079 48.611 C 170.369 47.978,171.077 46.830,171.653 46.060 C 172.230 45.289,172.965 44.264,173.288 43.783 C 174.343 42.209,177.342 38.825,179.460 36.818 C 180.601 35.736,181.777 34.615,182.073 34.326 C 182.826 33.589,186.072 31.524,186.475 31.524 C 186.659 31.524,187.067 31.291,187.380 31.008 C 187.694 30.724,188.974 30.277,190.225 30.015 C 191.476 29.753,192.808 29.359,193.185 29.140 C 194.360 28.459,199.167 28.639,201.727 29.460 M211.469 178.340 C 210.327 179.175,210.502 179.685,211.930 179.685 C 212.967 179.685,213.133 179.358,212.672 178.222 C 212.455 177.686,212.351 177.696,211.469 178.340 M242.156 180.220 C 241.850 180.868,241.860 181.148,242.198 181.429 C 242.912 182.021,243.469 181.085,242.964 180.142 L 242.554 179.376 242.156 180.220 " stroke="none" fill="#fbfbfb" fill-rule="evenodd"></path><path id="path3" d="M168.036 129.445 C 167.109 130.505,166.807 131.394,166.760 133.205 C 166.741 133.937,166.491 134.989,166.204 135.543 C 165.918 136.097,165.433 138.020,165.128 139.816 C 164.823 141.613,164.366 143.713,164.112 144.483 C 163.859 145.254,163.538 147.382,163.399 149.212 C 163.260 151.042,162.863 153.406,162.516 154.466 C 162.049 155.894,161.828 158.068,161.662 162.872 C 161.538 166.436,161.297 170.140,161.125 171.103 C 160.689 173.545,160.707 184.469,161.153 188.266 C 161.357 190.000,161.652 194.335,161.809 197.898 C 162.002 202.268,162.271 204.843,162.635 205.804 C 162.933 206.588,163.285 208.637,163.419 210.357 C 163.553 212.078,163.870 214.116,164.123 214.886 C 164.377 215.657,164.834 217.853,165.140 219.767 C 165.446 221.681,165.863 223.448,166.067 223.693 C 166.270 223.939,166.575 225.239,166.744 226.584 C 166.913 227.928,167.371 229.627,167.763 230.358 C 168.156 231.090,168.476 232.166,168.476 232.750 C 168.476 233.333,168.766 234.360,169.121 235.031 C 169.476 235.703,169.959 237.040,170.195 238.004 C 170.431 238.967,170.826 240.070,171.073 240.455 C 171.321 240.841,171.637 241.786,171.777 242.557 C 171.916 243.327,172.334 244.479,172.705 245.116 C 173.076 245.753,173.382 246.542,173.385 246.868 C 173.388 247.194,173.620 247.855,173.901 248.336 C 174.182 248.818,174.655 249.724,174.952 250.350 L 175.491 251.489 181.099 251.489 C 188.810 251.489,192.123 250.441,190.588 248.489 C 190.178 247.968,189.842 247.334,189.842 247.082 C 189.842 246.829,189.448 245.881,188.967 244.975 C 188.485 244.069,188.091 242.977,188.091 242.548 C 188.091 242.118,187.862 241.577,187.582 241.345 C 187.302 241.112,186.815 240.036,186.500 238.953 C 186.185 237.869,185.705 236.665,185.433 236.277 C 185.161 235.889,184.939 235.206,184.939 234.759 C 184.939 234.313,184.621 233.324,184.232 232.562 C 183.843 231.799,183.430 230.426,183.314 229.511 C 183.198 228.595,182.896 227.512,182.642 227.104 C 182.389 226.696,181.944 225.120,181.655 223.602 C 181.366 222.083,180.883 220.255,180.582 219.538 C 180.281 218.822,180.035 217.697,180.035 217.037 C 180.035 216.378,179.659 214.363,179.200 212.560 C 178.741 210.757,178.281 207.785,178.179 205.954 C 178.076 204.124,177.814 202.164,177.596 201.599 C 176.325 198.295,176.163 163.967,177.397 159.545 C 177.720 158.389,178.115 155.788,178.276 153.765 C 178.437 151.743,178.825 149.142,179.138 147.986 C 179.452 146.830,179.860 144.720,180.044 143.296 C 180.229 141.873,180.519 140.533,180.688 140.319 C 180.857 140.105,181.269 138.669,181.604 137.128 C 181.939 135.587,182.359 134.145,182.537 133.925 C 183.113 133.213,183.562 129.524,183.136 129.010 C 182.840 128.654,181.138 128.546,175.787 128.546 L 168.822 128.546 168.036 129.445 M144.538 130.959 C 143.990 131.320,142.583 131.724,141.412 131.857 C 140.240 131.989,138.718 132.383,138.029 132.732 C 137.341 133.081,136.068 133.480,135.201 133.620 C 132.846 134.000,132.169 134.811,131.891 137.591 C 131.762 138.877,131.368 140.797,131.015 141.856 C 130.662 142.916,130.273 144.807,130.150 146.060 C 130.028 147.312,129.624 149.755,129.254 151.489 C 128.571 154.687,127.720 162.756,127.093 171.979 C 126.648 178.526,126.956 192.299,127.630 195.972 C 127.912 197.513,128.247 200.508,128.372 202.627 C 128.498 204.746,128.887 207.662,129.237 209.107 C 129.586 210.552,129.981 212.914,130.114 214.357 C 130.248 215.800,130.649 217.849,131.007 218.910 C 131.365 219.972,131.766 221.786,131.898 222.942 C 132.030 224.098,132.339 225.440,132.585 225.924 C 132.831 226.408,133.230 227.827,133.473 229.076 C 133.716 230.326,134.114 231.664,134.357 232.049 C 134.600 232.434,134.911 233.380,135.048 234.151 C 135.184 234.921,135.569 236.103,135.902 236.778 C 136.235 237.452,136.621 238.629,136.760 239.392 C 136.899 240.156,137.275 241.260,137.595 241.844 C 137.915 242.429,138.342 243.536,138.543 244.304 C 138.787 245.232,139.199 245.833,139.770 246.097 C 141.884 247.074,145.391 248.072,147.740 248.366 C 149.146 248.542,150.722 248.900,151.243 249.163 C 152.324 249.707,155.635 250.155,156.403 249.860 C 157.339 249.501,157.157 248.942,153.911 242.202 C 153.445 241.236,153.065 240.128,153.065 239.740 C 153.065 239.352,152.837 238.710,152.558 238.312 C 152.280 237.914,151.865 236.848,151.637 235.943 C 151.409 235.037,150.928 233.718,150.568 233.011 C 150.207 232.304,149.912 231.471,149.912 231.160 C 149.912 230.849,149.518 229.467,149.037 228.089 C 148.555 226.710,148.158 225.146,148.153 224.613 C 148.149 224.079,147.848 222.987,147.484 222.186 C 147.120 221.384,146.713 219.651,146.580 218.333 C 146.446 217.015,146.124 215.599,145.865 215.187 C 145.605 214.774,145.225 212.883,145.020 210.984 C 144.814 209.085,144.416 206.585,144.135 205.429 C 142.130 197.202,142.264 163.323,144.339 153.607 C 144.707 151.882,145.009 149.828,145.009 149.042 C 145.009 148.256,145.255 146.751,145.556 145.698 C 145.857 144.645,146.316 142.522,146.576 140.981 C 146.836 139.440,147.299 137.593,147.605 136.876 C 147.911 136.160,148.161 135.259,148.161 134.875 C 148.161 134.490,148.411 133.439,148.717 132.538 C 149.176 131.186,149.191 130.850,148.804 130.605 C 147.975 130.080,145.569 130.279,144.538 130.959 M111.614 145.607 C 111.260 145.698,110.673 146.034,110.311 146.354 C 109.949 146.674,109.214 147.291,108.679 147.725 C 108.144 148.160,107.283 148.869,106.767 149.302 C 106.250 149.734,105.249 150.560,104.542 151.138 C 102.290 152.980,97.023 158.228,97.023 158.631 C 97.023 158.844,96.883 159.019,96.713 159.019 C 94.359 159.019,93.130 181.811,94.707 196.225 C 95.018 199.061,95.271 202.218,95.271 203.241 C 95.271 204.264,95.515 205.963,95.814 207.016 C 96.112 208.070,96.560 210.587,96.809 212.609 C 97.058 214.632,97.431 216.681,97.637 217.163 C 97.843 217.644,98.260 219.400,98.565 221.063 C 99.182 224.439,99.621 225.084,102.978 227.550 C 104.037 228.328,105.121 229.226,105.385 229.544 C 105.649 229.862,106.030 230.123,106.231 230.123 C 106.432 230.123,106.846 230.368,107.151 230.667 C 107.456 230.967,108.551 231.744,109.585 232.395 C 110.618 233.047,111.767 233.905,112.138 234.303 C 112.509 234.701,113.097 235.026,113.444 235.026 C 113.792 235.026,114.362 235.341,114.709 235.725 C 115.388 236.475,117.587 237.232,118.125 236.899 C 118.547 236.639,118.137 234.451,117.477 233.443 C 117.195 233.014,116.818 231.755,116.637 230.644 C 116.456 229.533,116.086 228.371,115.814 228.060 C 115.542 227.750,115.134 226.406,114.908 225.075 C 114.681 223.744,114.290 222.247,114.039 221.748 C 113.788 221.249,113.489 219.816,113.375 218.564 C 113.261 217.312,112.845 215.356,112.451 214.218 C 111.962 212.809,111.731 211.246,111.726 209.315 C 111.720 207.562,111.442 205.477,110.997 203.853 C 109.272 197.566,109.291 161.674,111.022 156.274 C 111.475 154.861,111.734 153.105,111.734 151.446 C 111.734 149.921,111.952 148.317,112.259 147.582 C 112.830 146.214,112.936 145.336,112.522 145.400 C 112.377 145.422,111.969 145.515,111.614 145.607 M207.579 173.200 C 201.110 176.300,200.052 187.691,205.824 192.099 C 207.839 193.637,208.675 193.655,211.022 192.207 C 213.897 190.433,214.694 189.060,216.145 183.376 C 216.495 182.003,216.285 179.486,215.763 178.809 C 215.614 178.616,215.379 177.907,215.241 177.233 C 214.943 175.785,213.303 173.936,211.485 172.999 C 209.887 172.175,209.698 172.185,207.579 173.200 M238.333 176.297 C 233.019 180.014,233.701 191.856,239.316 193.368 C 241.800 194.037,244.216 192.973,245.223 190.766 C 245.411 190.354,245.792 189.623,246.069 189.142 C 246.755 187.954,246.788 181.147,246.113 180.223 C 245.673 179.622,245.612 179.658,245.230 180.754 C 244.288 183.456,242.843 184.098,241.048 182.611 C 238.863 180.801,240.038 178.422,243.072 178.512 C 245.435 178.583,245.442 177.575,243.088 176.319 C 241.186 175.305,239.761 175.299,238.333 176.297 M213.660 177.838 C 213.949 178.460,214.383 178.972,214.623 178.977 C 214.864 178.981,215.061 179.142,215.061 179.335 C 215.061 179.527,214.901 179.685,214.706 179.685 C 214.511 179.685,213.917 180.170,213.388 180.763 C 211.743 182.604,209.095 181.082,209.638 178.608 C 210.161 176.228,212.687 175.745,213.660 177.838 " stroke="none" fill="#050505" fill-rule="evenodd"></path><path id="path4" d="M0.000 0.726 C 0.000 1.624,1.159 1.522,1.335 0.609 C 1.416 0.189,1.227 0.000,0.726 0.000 C 0.225 0.000,0.000 0.225,0.000 0.726 M398.249 0.700 C 398.249 1.399,397.957 1.401,199.912 1.488 L 1.576 1.576 1.576 175.131 L 1.576 348.687 199.770 348.774 C 397.604 348.862,397.965 348.864,398.147 349.562 C 398.266 350.016,398.625 350.263,399.165 350.263 L 400.000 350.263 400.000 175.131 L 400.000 0.000 399.124 0.000 C 398.482 0.000,398.249 0.187,398.249 0.700 M397.014 3.485 C 397.712 4.836,397.843 345.545,397.145 346.871 C 396.924 347.291,396.569 347.752,396.357 347.893 C 395.891 348.205,5.103 348.253,3.546 347.942 L 2.452 347.723 2.452 175.321 C 2.452 80.500,2.557 2.814,2.685 2.685 C 2.814 2.557,91.470 2.452,199.699 2.452 L 396.479 2.452 397.014 3.485 M193.185 29.140 C 192.808 29.359,191.476 29.753,190.225 30.015 C 188.974 30.277,187.694 30.724,187.380 31.008 C 187.067 31.291,186.659 31.524,186.475 31.524 C 186.072 31.524,182.826 33.589,182.073 34.326 C 181.777 34.615,180.601 35.736,179.460 36.818 C 177.342 38.825,174.343 42.209,173.288 43.783 C 172.965 44.264,172.230 45.289,171.653 46.060 C 171.077 46.830,170.369 47.978,170.079 48.611 C 169.790 49.244,169.310 50.004,169.014 50.300 C 168.719 50.596,168.476 51.111,168.476 51.446 C 168.476 51.780,168.082 52.587,167.601 53.240 C 167.119 53.893,166.725 54.771,166.725 55.192 C 166.725 55.612,166.487 56.154,166.196 56.395 C 165.905 56.637,165.413 57.720,165.103 58.802 C 164.793 59.885,164.414 60.928,164.262 61.121 C 164.110 61.313,163.723 62.486,163.402 63.727 C 163.081 64.968,162.594 66.303,162.320 66.695 C 162.046 67.086,161.821 67.968,161.821 68.654 C 161.821 69.340,161.505 70.802,161.118 71.903 C 160.731 73.003,160.271 75.289,160.096 76.982 C 159.921 78.675,159.537 81.000,159.242 82.149 C 158.948 83.298,158.455 87.154,158.146 90.718 C 157.838 94.282,157.436 97.655,157.252 98.213 C 157.068 98.772,156.918 103.280,156.918 108.231 C 156.918 116.806,156.664 119.440,155.839 119.440 C 155.517 119.440,155.343 118.817,155.007 116.462 C 154.817 115.136,154.142 112.699,152.872 108.757 C 152.562 107.793,152.038 105.821,151.708 104.374 C 151.378 102.927,150.972 101.523,150.805 101.254 C 150.639 100.985,150.307 99.883,150.067 98.806 C 149.827 97.729,149.300 95.945,148.896 94.842 C 148.492 93.739,148.161 92.412,148.161 91.893 C 148.161 91.373,147.925 90.687,147.636 90.368 C 147.347 90.049,146.930 88.855,146.708 87.714 C 146.487 86.573,146.143 85.431,145.944 85.176 C 145.563 84.689,144.109 81.351,143.627 79.860 C 143.472 79.378,142.931 78.212,142.425 77.268 C 141.920 76.325,141.506 75.365,141.506 75.135 C 141.506 74.579,139.707 71.110,137.989 68.354 C 137.226 67.130,136.602 65.977,136.602 65.791 C 136.602 65.605,136.208 64.936,135.727 64.304 C 135.245 63.673,134.851 63.051,134.851 62.923 C 134.851 61.850,123.781 50.088,122.772 50.088 C 122.527 50.088,122.122 49.840,121.870 49.537 C 121.619 49.234,120.851 48.680,120.164 48.307 C 119.476 47.934,118.678 47.486,118.389 47.313 C 117.274 46.643,113.895 45.202,111.333 44.304 C 107.657 43.016,96.603 43.080,93.802 44.405 C 92.898 44.834,91.924 45.184,91.638 45.184 C 91.352 45.184,90.902 45.400,90.638 45.664 C 90.374 45.928,89.658 46.403,89.047 46.719 C 84.971 48.827,80.099 53.744,78.271 57.595 C 77.945 58.282,77.551 58.844,77.396 58.844 C 77.241 58.844,77.003 59.356,76.868 59.982 C 76.733 60.609,76.321 61.715,75.954 62.441 C 74.007 66.286,74.026 79.762,75.983 84.077 C 76.373 84.936,76.696 85.915,76.700 86.252 C 76.704 86.589,77.088 87.614,77.552 88.529 C 78.017 89.444,78.907 91.296,79.531 92.644 C 80.154 93.993,80.781 95.175,80.923 95.271 C 81.066 95.368,81.435 95.998,81.744 96.673 C 82.282 97.845,85.540 102.314,87.985 105.233 C 89.425 106.952,100.385 117.870,101.979 119.173 C 102.624 119.701,103.704 120.617,104.378 121.209 C 105.053 121.802,106.183 122.683,106.891 123.169 C 107.599 123.654,108.264 124.275,108.369 124.548 C 108.474 124.820,108.773 125.044,109.035 125.044 C 109.296 125.044,109.880 125.438,110.333 125.919 C 110.785 126.401,111.270 126.795,111.409 126.795 C 111.802 126.795,115.397 129.268,115.528 129.628 C 115.593 129.804,115.935 129.947,116.290 129.947 C 116.644 129.947,117.402 130.342,117.975 130.823 C 118.547 131.305,119.092 131.699,119.185 131.699 C 119.387 131.699,123.130 133.936,123.742 134.423 C 123.976 134.609,124.763 134.973,125.491 135.231 C 126.313 135.522,126.748 135.870,126.640 136.151 C 126.398 136.782,126.669 136.717,127.815 135.870 C 128.394 135.441,129.407 135.114,130.254 135.082 C 131.322 135.041,131.757 134.857,131.910 134.381 C 132.121 133.721,134.006 132.750,135.075 132.750 C 135.403 132.750,135.920 132.532,136.225 132.266 C 136.529 132.000,137.859 131.598,139.180 131.373 C 140.501 131.148,141.920 130.756,142.332 130.501 C 143.768 129.615,149.212 129.113,149.729 129.820 C 150.144 130.387,150.190 130.378,150.410 129.686 C 150.669 128.869,150.609 128.880,158.669 128.207 C 165.057 127.674,166.264 127.668,166.860 128.163 C 167.307 128.534,167.547 128.457,168.302 127.701 C 169.397 126.607,172.042 126.474,176.007 127.314 C 177.356 127.600,179.577 127.836,180.944 127.840 C 182.932 127.845,183.549 127.978,184.029 128.508 C 184.391 128.909,184.903 129.099,185.323 128.989 C 185.979 128.818,185.984 128.771,185.424 128.152 C 184.861 127.530,184.905 127.395,186.283 125.482 C 187.082 124.374,188.049 122.837,188.434 122.067 C 188.818 121.296,189.611 119.877,190.197 118.914 C 190.782 117.951,191.449 116.729,191.679 116.200 C 191.909 115.670,192.212 115.236,192.353 115.236 C 192.493 115.236,193.365 113.880,194.290 112.223 C 195.215 110.566,196.319 108.635,196.744 107.932 C 197.168 107.230,198.245 105.236,199.137 103.503 C 200.028 101.769,201.122 99.720,201.566 98.949 C 202.011 98.179,202.784 96.839,203.284 95.972 C 203.784 95.105,204.471 93.844,204.811 93.170 C 205.151 92.496,205.560 91.887,205.721 91.817 C 205.881 91.748,206.320 91.039,206.696 90.241 C 207.072 89.444,207.845 88.004,208.413 87.040 C 208.981 86.077,209.669 84.796,209.941 84.193 C 210.214 83.591,210.599 82.998,210.797 82.875 C 210.995 82.752,211.346 82.063,211.577 81.344 C 211.808 80.624,212.191 79.799,212.428 79.510 C 212.665 79.221,213.371 77.802,213.998 76.357 C 214.624 74.912,215.424 73.100,215.775 72.329 C 216.126 71.559,216.518 70.455,216.646 69.877 C 216.774 69.299,217.162 68.039,217.508 67.075 C 219.232 62.279,219.677 55.813,218.726 49.361 C 218.107 45.158,217.945 44.504,217.341 43.783 C 217.099 43.494,216.799 42.688,216.675 41.992 C 216.551 41.296,216.136 40.444,215.755 40.099 C 215.373 39.754,215.061 39.316,215.061 39.126 C 215.061 38.541,211.245 34.399,209.697 33.306 C 204.579 29.689,195.979 27.520,193.185 29.140 M239.609 91.197 C 239.689 91.268,240.841 91.409,242.168 91.511 C 243.621 91.622,244.388 91.573,244.095 91.388 C 243.640 91.100,239.289 90.915,239.609 91.197 M256.404 92.092 C 257.085 92.225,257.873 92.455,258.156 92.603 C 258.438 92.751,258.363 92.623,257.989 92.320 C 257.615 92.017,256.827 91.787,256.238 91.809 C 255.172 91.849,255.173 91.851,256.404 92.092 M262.716 97.334 C 263.111 98.145,263.026 99.615,262.500 101.051 C 262.312 101.564,262.350 101.654,262.642 101.387 C 263.362 100.728,263.519 97.979,262.880 97.198 C 262.325 96.518,262.320 96.523,262.716 97.334 M251.694 112.064 C 252.289 112.206,252.998 112.438,253.271 112.580 C 253.543 112.721,253.459 112.588,253.085 112.285 C 252.711 111.982,252.002 111.750,251.509 111.770 C 250.685 111.803,250.700 111.826,251.694 112.064 M260.275 130.123 C 260.265 130.508,260.409 131.060,260.595 131.349 C 261.045 132.045,261.045 131.170,260.595 130.123 L 260.294 129.422 260.275 130.123 M266.063 131.524 C 266.351 132.812,266.552 133.091,266.545 132.195 C 266.542 131.826,266.379 131.287,266.184 130.998 C 265.924 130.615,265.891 130.756,266.063 131.524 M111.465 143.958 C 111.224 144.343,110.821 144.658,110.568 144.658 C 110.315 144.658,109.780 145.013,109.379 145.447 C 108.977 145.880,108.062 146.629,107.345 147.110 C 106.627 147.592,105.663 148.337,105.202 148.766 C 104.740 149.195,104.051 149.713,103.670 149.917 C 103.289 150.120,102.977 150.518,102.977 150.800 C 102.977 151.083,102.744 151.313,102.460 151.313 C 102.175 151.313,101.684 151.708,101.369 152.189 C 101.053 152.671,100.587 153.065,100.334 153.065 C 100.080 153.065,99.775 153.372,99.655 153.747 C 99.536 154.123,99.132 154.528,98.756 154.647 C 98.381 154.766,98.074 155.016,98.074 155.204 C 98.074 155.391,97.325 156.307,96.410 157.239 C 94.968 158.708,92.820 161.720,92.820 162.272 C 92.820 163.014,94.578 161.426,94.883 160.408 C 95.408 158.657,103.842 150.199,107.145 148.111 C 107.646 147.794,108.548 147.073,109.148 146.509 C 111.055 144.718,112.711 143.889,113.078 144.544 C 113.329 144.992,113.420 144.923,113.562 144.177 C 113.787 143.002,112.167 142.833,111.465 143.958 M259.972 144.495 C 260.496 145.046,260.987 145.427,261.064 145.340 C 261.141 145.254,260.712 144.803,260.111 144.338 L 259.019 143.493 259.972 144.495 M210.973 177.504 C 210.439 177.845,210.076 179.402,210.417 179.894 C 210.981 180.707,212.540 180.777,213.075 180.014 C 214.134 178.502,212.491 176.539,210.973 177.504 M212.935 179.247 C 212.964 179.753,211.005 179.856,210.702 179.365 C 210.593 179.189,210.939 178.728,211.469 178.340 C 212.469 177.610,212.857 177.850,212.935 179.247 M241.392 179.795 C 240.423 180.826,240.434 180.950,241.579 181.935 L 242.527 182.751 243.505 182.028 C 244.695 181.148,244.725 180.735,243.673 179.746 C 242.649 178.785,242.335 178.791,241.392 179.795 M243.007 181.352 C 242.357 182.135,241.678 181.231,242.156 180.220 L 242.554 179.376 242.964 180.142 C 243.253 180.681,243.265 181.040,243.007 181.352 M97.960 223.367 C 97.554 224.025,98.076 225.523,98.791 225.750 C 99.147 225.863,99.536 226.262,99.655 226.638 C 99.775 227.013,100.089 227.320,100.354 227.320 C 100.619 227.320,101.070 227.655,101.357 228.064 C 101.643 228.473,102.177 228.985,102.543 229.202 C 104.884 230.591,106.819 231.987,107.999 233.139 C 108.416 233.545,109.090 233.983,109.498 234.111 C 109.907 234.239,110.522 234.655,110.866 235.035 C 111.210 235.416,111.721 235.727,112.000 235.727 C 112.280 235.727,112.977 236.121,113.549 236.602 C 114.121 237.084,114.887 237.478,115.251 237.478 C 115.615 237.478,116.071 237.775,116.265 238.138 C 116.468 238.516,117.183 238.898,117.941 239.032 C 118.669 239.161,119.554 239.352,119.907 239.456 C 120.457 239.618,120.496 239.544,120.175 238.944 C 119.928 238.484,119.565 238.303,119.119 238.420 C 118.537 238.572,115.063 237.032,114.536 236.389 C 114.440 236.271,113.857 235.917,113.241 235.601 C 112.206 235.071,110.517 233.947,107.757 231.953 C 107.151 231.515,106.143 230.829,105.517 230.430 C 104.891 230.030,104.378 229.586,104.378 229.444 C 104.378 229.301,104.024 229.015,103.590 228.809 C 101.693 227.906,98.726 224.988,98.409 223.713 C 98.283 223.206,98.132 223.090,97.960 223.367 M137.828 246.586 C 137.623 246.917,138.999 247.636,139.838 247.636 C 140.051 247.636,140.498 247.883,140.832 248.185 C 141.166 248.488,142.597 248.885,144.012 249.068 C 145.427 249.251,146.994 249.629,147.493 249.907 C 147.992 250.185,149.726 250.510,151.346 250.630 C 152.966 250.749,154.904 251.078,155.654 251.360 C 156.978 251.858,159.019 251.733,159.019 251.153 C 159.019 250.647,158.007 250.022,157.597 250.276 C 156.850 250.738,152.417 250.431,150.194 249.764 C 148.979 249.400,146.931 248.927,145.641 248.712 C 144.351 248.498,142.145 247.853,140.737 247.280 C 137.759 246.066,138.099 246.147,137.828 246.586 M191.243 250.810 C 190.338 251.950,176.297 252.865,175.283 251.850 C 175.097 251.664,174.561 251.612,174.093 251.734 C 172.140 252.245,174.841 252.490,182.312 252.480 C 190.453 252.469,191.477 252.356,192.078 251.403 C 192.642 250.508,191.901 249.982,191.243 250.810 M0.000 349.737 C 0.000 350.029,0.311 350.263,0.701 350.263 C 1.090 350.263,1.401 350.029,1.401 349.737 C 1.401 349.445,1.090 349.212,0.701 349.212 C 0.311 349.212,0.000 349.445,0.000 349.737 " stroke="none" fill="#bcbcbc" fill-rule="evenodd"></path></g></svg>
